<svg xmlns="http://www.w3.org/2000/svg" width="1440" height="388" viewBox="0 0 1440 388" role="img"><title>ENDFIELD-TERRA — geometric study</title><desc>Original point geometry. Sarkaz lettering outlined from EndfieldByButan by 罗醭坦, CC BY-NC 4.0.</desc><rect width="1440" height="388" fill="#f5f5f0"/><polyline points="0,0 1440,0" fill="none" stroke="#191919" stroke-width="2"/><path d="M197 622V21Q197 0 176 0H91Q70 0 70 21V622Q70 643 91 643H176Q197 643 197 622Z" transform="translate(20.000 192) scale(0.157000 -0.157000)" fill="#191919"/><path d="M169 0H86Q65 0 65 21V622Q65 643 86 643H161Q182 643 189 629L391 250H395V622Q395 643 416 643H499Q520 643 520 622V21Q520 0 499 0H426Q404 0 394 20L194 392H190V21Q190 0 169 0Z" transform="translate(61.919 192) scale(0.157000 -0.157000)" fill="#191919"/><path d="M203 110H312Q344 110 357.5 123.5Q371 137 371 169V474Q371 506 357.5 519.5Q344 533 312 533H203Q192 533 192 522V121Q192 110 203 110ZM65 21V622Q65 643 86 643H333Q411 643 454.5 600.5Q498 558 498 480V163Q498 85 454.5 42.5Q411 0 333 0H86Q65 0 65 21Z" transform="translate(153.764 192) scale(0.157000 -0.157000)" fill="#191919"/><path d="M394 643H478Q500 643 500 623V163Q500 85 456.5 42.5Q413 0 335 0H225Q146 0 103.0 42.0Q60 84 60 163V622Q60 643 81 643H166Q187 643 187 622V169Q187 137 200.5 123.5Q214 110 245 110H314Q346 110 359.5 123.5Q373 137 373 169V622Q373 643 394 643Z" transform="translate(240.585 192) scale(0.157000 -0.157000)" fill="#191919"/><path d="M49 164V184Q49 205 70 205H155Q176 205 176 184V176Q176 138 191.0 124.0Q206 110 246 110H293Q332 110 347.5 125.0Q363 140 363 181V193Q363 222 339.5 237.5Q316 253 281.0 256.0Q246 259 205.5 267.5Q165 276 130.0 289.5Q95 303 71.5 342.5Q48 382 48 444V479Q48 557 92.0 600.0Q136 643 214 643H314Q393 643 437.0 600.0Q481 557 481 479V460Q481 439 460 439H375Q354 439 354 460V466Q354 505 339.0 519.0Q324 533 284 533H245Q204 533 189.5 517.5Q175 502 175 457V438Q175 391 257 384Q342 377 408 350Q443 335 466.5 296.5Q490 258 490 198V164Q490 86 446.0 43.0Q402 0 324 0H215Q137 0 93.0 43.0Q49 86 49 164Z" transform="translate(328.505 192) scale(0.157000 -0.157000)" fill="#191919"/><path d="M264 0H180Q158 0 158 21V522Q158 533 147 533H33Q12 533 12 554V622Q12 643 33 643H411Q432 643 432 622V554Q432 533 411 533H297Q285 533 285 522V21Q285 0 264 0Z" transform="translate(413.128 192) scale(0.157000 -0.157000)" fill="#191919"/><path d="M171 0H86Q65 0 65 21V622Q65 643 86 643H324Q402 643 446.0 600.0Q490 557 490 479V401Q490 288 401 251V247L508 24Q517 0 491 0H410Q392 0 384.0 4.0Q376 8 371 21L271 237H204Q192 237 192 226V21Q192 0 171 0ZM203 339H301Q333 339 348.0 352.5Q363 366 363 396V474Q363 505 348.0 519.0Q333 533 301 533H203Q192 533 192 522V350Q192 339 203 339Z" transform="translate(482.679 192) scale(0.157000 -0.157000)" fill="#191919"/><path d="M197 622V21Q197 0 176 0H91Q70 0 70 21V622Q70 643 91 643H176Q197 643 197 622Z" transform="translate(568.558 192) scale(0.157000 -0.157000)" fill="#191919"/><path d="M132 0H36Q18 0 24 21L182 622Q189 643 212 643H345Q370 643 375 622L533 21Q539 0 521 0H425Q414 0 410.0 4.5Q406 9 404 21L376 131H181L153 21Q151 9 146.5 4.5Q142 0 132 0ZM277 522 205 233H353L281 522Z" transform="translate(610.477 192) scale(0.157000 -0.157000)" fill="#191919"/><path d="M415 0H86Q65 0 65 21V622Q65 643 86 643H171Q192 643 192 622V122Q192 111 204 111H415Q435 111 435 89V21Q435 0 415 0Z" transform="translate(697.926 192) scale(0.157000 -0.157000)" fill="#191919"/><path d="M171 0H86Q65 0 65 21V622Q65 643 86 643H330Q408 643 451.0 600.5Q494 558 494 480V384Q494 306 451.0 263.5Q408 221 330 221H204Q192 221 192 210V21Q192 0 171 0ZM203 332H309Q341 332 354.0 345.5Q367 359 367 390V474Q367 506 354.0 519.5Q341 533 309 533H203Q192 533 192 522V343Q192 332 203 332Z" transform="translate(23.000 318) scale(0.133000 -0.133000)" fill="#191919"/><path d="M415 0H86Q65 0 65 21V622Q65 643 86 643H171Q192 643 192 622V122Q192 111 204 111H415Q435 111 435 89V21Q435 0 415 0Z" transform="translate(93.490 318) scale(0.133000 -0.133000)" fill="#191919"/><path d="M132 0H36Q18 0 24 21L182 622Q189 643 212 643H345Q370 643 375 622L533 21Q539 0 521 0H425Q414 0 410.0 4.5Q406 9 404 21L376 131H181L153 21Q151 9 146.5 4.5Q142 0 132 0ZM277 522 205 233H353L281 522Z" transform="translate(153.207 318) scale(0.133000 -0.133000)" fill="#191919"/><path d="M169 0H86Q65 0 65 21V622Q65 643 86 643H161Q182 643 189 629L391 250H395V622Q395 643 416 643H499Q520 643 520 622V21Q520 0 499 0H426Q404 0 394 20L194 392H190V21Q190 0 169 0Z" transform="translate(227.288 318) scale(0.133000 -0.133000)" fill="#191919"/><path d="M169 0H86Q65 0 65 21V622Q65 643 86 643H161Q182 643 189 629L391 250H395V622Q395 643 416 643H499Q520 643 520 622V21Q520 0 499 0H426Q404 0 394 20L194 392H190V21Q190 0 169 0Z" transform="translate(305.093 318) scale(0.133000 -0.133000)" fill="#191919"/><path d="M197 622V21Q197 0 176 0H91Q70 0 70 21V622Q70 643 91 643H176Q197 643 197 622Z" transform="translate(382.898 318) scale(0.133000 -0.133000)" fill="#191919"/><path d="M169 0H86Q65 0 65 21V622Q65 643 86 643H161Q182 643 189 629L391 250H395V622Q395 643 416 643H499Q520 643 520 622V21Q520 0 499 0H426Q404 0 394 20L194 392H190V21Q190 0 169 0Z" transform="translate(418.409 318) scale(0.133000 -0.133000)" fill="#191919"/><path d="M326 0H220Q141 0 98.0 42.0Q55 84 55 163V480Q55 559 98.0 601.0Q141 643 220 643H326Q404 643 447.0 600.5Q490 558 490 480V450Q490 428 469 428H384Q363 428 363 450V474Q363 506 350.0 519.5Q337 533 305 533H240Q209 533 195.5 519.5Q182 506 182 474V169Q182 137 195.5 123.5Q209 110 240 110H305Q337 110 350.0 123.5Q363 137 363 169V232Q363 243 352 243H292Q271 243 271 264V332Q271 353 292 353H467Q490 353 490 330V163Q490 85 447.0 42.5Q404 0 326 0Z" transform="translate(496.214 318) scale(0.133000 -0.133000)" fill="#191919"/><polygon points="1021,80 1369,80 1369,327 1112,327 1112,238 1021,238" fill="#fffa00"/><path d="M289 144V21Q289 0 270 0H181Q161 0 161 22V143Q161 163 181 163H270Q289 163 289 144ZM288 275V249Q288 228 267 228H188Q167 228 167 249V276Q167 309 178.0 329.5Q189 350 215 371L271 417Q303 442 303 472V478Q303 509 288.5 522.5Q274 536 241 536H223Q192 536 178.5 523.0Q165 510 165 478V457Q165 435 144 435H59Q38 435 38 457V480Q38 558 81.0 600.0Q124 642 203 642H262Q341 642 384.0 600.0Q427 558 427 480V466Q427 417 382 378L314 323Q288 299 288 275Z" transform="translate(1131.000 284) scale(0.179000 -0.179000)" fill="#191919"/><polyline points="875,120 965,120 965,313 1029,313" fill="none" stroke="#191919" stroke-width="5"/><polyline points="1320,388 1440,268" fill="none" stroke="#191919" stroke-width="6"/><path d="M100 1400H1300V1000H100ZM100 0V400H1300V0ZM100 500V900H600V500Z" transform="translate(945.000 376) scale(0.012695 -0.012695)" fill="#191919"/><path d="M350 1400H850V0H350ZM900 1050H1100V350H900ZM300 350H100V1050H300Z" transform="translate(965.773 376) scale(0.012695 -0.012695)" fill="#191919"/><path d="M400 0Q276 0 188.0 88.0Q100 176 100 300Q100 424 188.0 512.0Q276 600 400 600Q524 600 612.0 512.0Q700 424 700 300Q700 176 612.0 88.0Q524 0 400 0ZM1260 0Q1136 0 1048.0 88.0Q960 176 960 300Q960 424 1048.0 512.0Q1136 600 1260 600Q1384 600 1472.0 512.0Q1560 424 1560 300Q1560 176 1472.0 88.0Q1384 0 1260 0ZM830 800Q706 800 618.0 888.0Q530 976 530 1100Q530 1224 618.0 1312.0Q706 1400 830 1400Q954 1400 1042.0 1312.0Q1130 1224 1130 1100Q1130 976 1042.0 888.0Q954 800 830 800Z" transform="translate(984.008 376) scale(0.012695 -0.012695)" fill="#191919"/><path d="M450 1400Q595 1400 697.5 1297.5Q800 1195 800 1050Q800 905 697.5 802.5Q595 700 450 700Q305 700 202.5 802.5Q100 905 100 1050Q100 1195 202.5 1297.5Q305 1400 450 1400ZM100 0 800 900V0Z" transform="translate(1008.082 376) scale(0.012695 -0.012695)" fill="#191919"/><path d="M1294 1400Q1380 1400 1440.0 1340.0Q1500 1280 1500 1194Q1500 1109 1440.0 1048.5Q1380 988 1294 988Q1209 988 1148.5 1048.5Q1088 1109 1088 1194Q1088 1280 1148.5 1340.0Q1209 1400 1294 1400ZM1500 0H100V1400H1000Z" transform="translate(1022.508 376) scale(0.012695 -0.012695)" fill="#191919"/><path d="M1300 0H800V400H1300ZM800 400H100L600 1400H1300Z" transform="translate(1045.820 376) scale(0.012695 -0.012695)" fill="#191919"/><path d="M200 400H500V500H100V1000L500 1400H1300L1000 0H200Z" transform="translate(1076.043 376) scale(0.012695 -0.012695)" fill="#191919"/><path d="M350 1400H850V0H350ZM900 1050H1100V350H900ZM300 350H100V1050H300Z" transform="translate(1096.816 376) scale(0.012695 -0.012695)" fill="#191919"/><path d="M350 1400H850V0H350ZM900 1050H1100V350H900ZM300 350H100V1050H300Z" transform="translate(1115.051 376) scale(0.012695 -0.012695)" fill="#191919"/><path d="M1294 1400Q1380 1400 1440.0 1340.0Q1500 1280 1500 1194Q1500 1109 1440.0 1048.5Q1380 988 1294 988Q1209 988 1148.5 1048.5Q1088 1109 1088 1194Q1088 1280 1148.5 1340.0Q1209 1400 1294 1400ZM1500 0H100V1400H1000Z" transform="translate(1133.285 376) scale(0.012695 -0.012695)" fill="#191919"/></svg>